<mxfile host="app.diagrams.net" agent="Mozilla/5.0 (Windows NT 10.0; Win64; x64) AppleWebKit/537.36 (KHTML, like Gecko) Chrome/140.0.0.0 Safari/537.36 Edg/140.0.0.0" version="28.2.3">
  <diagram name="Page-1" id="gQGuur7Jk-eVvDWWZpWR">
    <mxGraphModel dx="779" dy="538" grid="1" gridSize="10" guides="1" tooltips="1" connect="1" arrows="1" fold="1" page="1" pageScale="1" pageWidth="1400" pageHeight="850" math="0" shadow="0">
      <root>
        <mxCell id="0" />
        <mxCell id="1" parent="0" />
        <mxCell id="HE_lrAiI9O51iblb2gpH-1" value="&lt;font face=&quot;Tahoma&quot;&gt;LLM&lt;/font&gt;" style="ellipse;whiteSpace=wrap;html=1;fillColor=#66FFFF;" vertex="1" parent="1">
          <mxGeometry x="140" y="100" width="120" height="80" as="geometry" />
        </mxCell>
        <mxCell id="HE_lrAiI9O51iblb2gpH-3" value="" style="endArrow=classic;startArrow=classic;html=1;rounded=0;exitX=0.5;exitY=0;exitDx=0;exitDy=0;entryX=0.5;entryY=1;entryDx=0;entryDy=0;" edge="1" parent="1" source="HE_lrAiI9O51iblb2gpH-2" target="HE_lrAiI9O51iblb2gpH-1">
          <mxGeometry width="50" height="50" relative="1" as="geometry">
            <mxPoint x="380" y="310" as="sourcePoint" />
            <mxPoint x="430" y="260" as="targetPoint" />
          </mxGeometry>
        </mxCell>
        <mxCell id="HE_lrAiI9O51iblb2gpH-4" value="AWS Cloud" style="points=[[0,0],[0.25,0],[0.5,0],[0.75,0],[1,0],[1,0.25],[1,0.5],[1,0.75],[1,1],[0.75,1],[0.5,1],[0.25,1],[0,1],[0,0.75],[0,0.5],[0,0.25]];outlineConnect=0;gradientColor=none;html=1;whiteSpace=wrap;fontSize=12;fontStyle=0;container=1;pointerEvents=0;collapsible=0;recursiveResize=0;shape=mxgraph.aws4.group;grIcon=mxgraph.aws4.group_aws_cloud_alt;strokeColor=#232F3E;fillColor=none;verticalAlign=top;align=left;spacingLeft=30;fontColor=#232F3E;dashed=0;" vertex="1" parent="1">
          <mxGeometry x="110" y="75" width="500" height="345" as="geometry" />
        </mxCell>
        <mxCell id="HE_lrAiI9O51iblb2gpH-12" value="" style="rounded=1;whiteSpace=wrap;html=1;" vertex="1" parent="HE_lrAiI9O51iblb2gpH-4">
          <mxGeometry x="210" y="105" width="120" height="230" as="geometry" />
        </mxCell>
        <mxCell id="HE_lrAiI9O51iblb2gpH-2" value="Orchestrator" style="rhombus;whiteSpace=wrap;html=1;fillColor=#33FFFF;" vertex="1" parent="HE_lrAiI9O51iblb2gpH-4">
          <mxGeometry x="25" y="155" width="130" height="130" as="geometry" />
        </mxCell>
        <mxCell id="HE_lrAiI9O51iblb2gpH-13" value="" style="endArrow=classic;startArrow=classic;html=1;rounded=0;exitX=1;exitY=0.5;exitDx=0;exitDy=0;entryX=0;entryY=0.5;entryDx=0;entryDy=0;" edge="1" parent="HE_lrAiI9O51iblb2gpH-4" source="HE_lrAiI9O51iblb2gpH-2" target="HE_lrAiI9O51iblb2gpH-12">
          <mxGeometry width="50" height="50" relative="1" as="geometry">
            <mxPoint x="270" y="235" as="sourcePoint" />
            <mxPoint x="320" y="185" as="targetPoint" />
          </mxGeometry>
        </mxCell>
        <mxCell id="HE_lrAiI9O51iblb2gpH-14" value="Knowlege Base" style="text;html=1;align=center;verticalAlign=middle;whiteSpace=wrap;rounded=0;" vertex="1" parent="HE_lrAiI9O51iblb2gpH-4">
          <mxGeometry x="240" y="115" width="60" height="30" as="geometry" />
        </mxCell>
        <mxCell id="HE_lrAiI9O51iblb2gpH-9" value="" style="group" vertex="1" connectable="0" parent="1">
          <mxGeometry x="135" y="460" width="120" height="80" as="geometry" />
        </mxCell>
        <mxCell id="HE_lrAiI9O51iblb2gpH-5" value="" style="ellipse;whiteSpace=wrap;html=1;" vertex="1" parent="HE_lrAiI9O51iblb2gpH-9">
          <mxGeometry width="120" height="80" as="geometry" />
        </mxCell>
        <mxCell id="HE_lrAiI9O51iblb2gpH-6" value="" style="image;aspect=fixed;perimeter=ellipsePerimeter;html=1;align=center;shadow=0;dashed=0;spacingTop=3;image=img/lib/active_directory/laptop_client.svg;" vertex="1" parent="HE_lrAiI9O51iblb2gpH-9">
          <mxGeometry x="37.5" y="10" width="45" height="50" as="geometry" />
        </mxCell>
        <mxCell id="HE_lrAiI9O51iblb2gpH-7" value="Client" style="text;html=1;align=center;verticalAlign=middle;whiteSpace=wrap;rounded=0;" vertex="1" parent="HE_lrAiI9O51iblb2gpH-9">
          <mxGeometry x="30" y="50" width="60" height="30" as="geometry" />
        </mxCell>
        <mxCell id="HE_lrAiI9O51iblb2gpH-10" value="" style="shape=flexArrow;endArrow=classic;startArrow=classic;html=1;rounded=0;entryX=0.5;entryY=1;entryDx=0;entryDy=0;exitX=0.558;exitY=0.013;exitDx=0;exitDy=0;exitPerimeter=0;" edge="1" parent="1" source="HE_lrAiI9O51iblb2gpH-5" target="HE_lrAiI9O51iblb2gpH-2">
          <mxGeometry width="100" height="100" relative="1" as="geometry">
            <mxPoint x="200" y="430" as="sourcePoint" />
            <mxPoint x="450" y="230" as="targetPoint" />
          </mxGeometry>
        </mxCell>
      </root>
    </mxGraphModel>
  </diagram>
</mxfile>
